<?xml version="1.0" encoding="utf-8"?>
<!-- Generator: Adobe Illustrator 24.0.2, SVG Export Plug-In . SVG Version: 6.00 Build 0)  -->
<svg version="1.1" id="Layer_1" xmlns="http://www.w3.org/2000/svg" xmlns:xlink="http://www.w3.org/1999/xlink" x="0px" y="0px"
	 viewBox="0 0 273 78.4" style="enable-background:new 0 0 273 78.4;" xml:space="preserve">
<style type="text/css">
	.st0{fill:#FFFFFF;}
</style>
<g>
	<g>
		<g>
			<path class="st0" d="M104.8,29.1c1,0.2,1.8,0.4,2.3,0.6c0.2,0.1,0.3,0.1,0.4,0.2c0.1,0.1,0.1,0.3,0.1,0.5l0.4,4.4
				c0,0.1-0.1,0.1-0.2,0.1c-0.1,0-0.2,0-0.2-0.1c-0.7-1.6-1.7-2.9-2.9-3.8c-1.2-0.9-2.6-1.3-4.1-1.3c-2.1,0-3.7,0.8-4.8,2.3
				c-1.1,1.5-1.7,3.6-1.7,6.1c0,1.9,0.3,3.7,0.9,5.3c0.6,1.6,1.5,2.8,2.6,3.8c1.1,0.9,2.4,1.4,3.8,1.4c1.3,0,2.5-0.4,3.6-1.3
				c1.1-0.9,2-2.2,2.8-4.1c0-0.1,0.1-0.1,0.2-0.1c0.1,0,0.2,0.1,0.2,0.1l-0.5,4.3c0,0.2-0.1,0.4-0.1,0.5c-0.1,0.1-0.2,0.2-0.4,0.2
				c-1.9,0.7-3.8,1-5.7,1c-2.5,0-4.7-0.5-6.4-1.5c-1.7-1-3-2.3-3.8-3.9c-0.8-1.6-1.2-3.2-1.2-4.9c0-2,0.5-3.7,1.6-5.3
				c1.1-1.5,2.5-2.7,4.3-3.5c1.8-0.8,3.7-1.3,5.7-1.3C102.8,28.9,103.8,29,104.8,29.1z"/>
			<path class="st0" d="M132.7,48.6c0,0.1,0,0.2-0.1,0.2c-0.7,0-1.3,0-1.8,0l-2.4,0l-2.8,0c-0.4,0-0.9,0-1.5,0
				c-0.1,0-0.1-0.1-0.1-0.2c0-0.1,0-0.2,0.1-0.2c0.8,0,1.3-0.1,1.7-0.2c0.4-0.1,0.6-0.3,0.7-0.6c0.1-0.3,0.2-0.8,0.2-1.4v-7.2h-10.1
				v7.2c0,0.6,0.1,1.1,0.2,1.4c0.1,0.3,0.4,0.5,0.7,0.6c0.4,0.1,0.9,0.2,1.7,0.2c0,0,0.1,0.1,0.1,0.2c0,0.1,0,0.2-0.1,0.2
				c-0.7,0-1.3,0-1.8,0l-2.7,0l-2.3,0c-0.4,0-1,0-1.7,0c0,0-0.1-0.1-0.1-0.2c0-0.1,0-0.2,0.1-0.2c0.7,0,1.3-0.1,1.6-0.2
				c0.3-0.1,0.6-0.3,0.7-0.6c0.1-0.3,0.2-0.8,0.2-1.4V31.8c0-0.6-0.1-1.1-0.2-1.4c-0.1-0.3-0.4-0.5-0.7-0.6
				c-0.3-0.1-0.8-0.2-1.6-0.2c-0.1,0-0.1-0.1-0.1-0.2s0-0.2,0.1-0.2l1.7,0c1,0,1.7,0.1,2.3,0.1c0.8,0,1.7,0,2.8-0.1l1.7,0
				c0,0,0.1,0.1,0.1,0.2s0,0.2-0.1,0.2c-0.8,0-1.3,0.1-1.7,0.2c-0.4,0.1-0.6,0.3-0.7,0.6s-0.2,0.8-0.2,1.4v6.4h10.1v-6.4
				c0-0.6-0.1-1.1-0.2-1.4c-0.1-0.3-0.4-0.5-0.7-0.6c-0.4-0.1-0.9-0.2-1.7-0.2c-0.1,0-0.1-0.1-0.1-0.2s0-0.2,0.1-0.2l1.5,0
				c1,0,2,0.1,2.8,0.1c0.6,0,1.4,0,2.4-0.1l1.8,0c0.1,0,0.1,0.1,0.1,0.2s0,0.2-0.1,0.2c-0.7,0-1.2,0.1-1.6,0.2
				c-0.3,0.1-0.6,0.3-0.7,0.6c-0.1,0.3-0.2,0.8-0.2,1.4v14.5c0,0.6,0.1,1.1,0.2,1.4c0.1,0.3,0.3,0.5,0.7,0.6s0.9,0.2,1.6,0.2
				C132.6,48.5,132.7,48.5,132.7,48.6z"/>
			<path class="st0" d="M156.2,48.6c0,0.1-0.1,0.2-0.2,0.2c-0.4,0-1.1,0-1.9-0.1c-0.9,0-1.6-0.1-2-0.1c-0.5,0-1.2,0-1.9,0.1
				c-0.7,0-1.3,0.1-1.7,0.1c-0.1,0-0.1-0.1-0.1-0.2c0-0.1,0-0.2,0.1-0.2c0.5,0,0.9-0.1,1.2-0.2c0.2-0.1,0.4-0.3,0.4-0.6
				c0-0.4-0.2-1-0.6-1.8l-3.3-6.4h-5.6l-2.2,4.9c-0.3,0.6-0.4,1.2-0.4,1.7c0,0.8,0.3,1.3,0.8,1.8c0.5,0.4,1.2,0.6,2.1,0.6
				c0.1,0,0.2,0.1,0.2,0.2c0,0.1-0.1,0.2-0.2,0.2c-0.4,0-0.9,0-1.6-0.1c-0.8,0-1.5-0.1-2.1-0.1c-0.6,0-1.2,0-2,0.1
				c-0.7,0-1.3,0.1-1.7,0.1c-0.1,0-0.1-0.1-0.1-0.2c0-0.1,0-0.2,0.1-0.2c0.6,0,1.1-0.1,1.5-0.4c0.4-0.2,0.8-0.7,1.2-1.3
				c0.4-0.6,0.9-1.5,1.4-2.7l6.8-14.9c0-0.1,0.1-0.1,0.3-0.1c0.2,0,0.3,0,0.3,0.1l7.8,15.4c0.7,1.5,1.3,2.5,1.8,3.1s1,0.8,1.5,0.8
				C156.1,48.5,156.2,48.5,156.2,48.6z M141,38.6h4.7l-2.5-4.9L141,38.6z"/>
			<path class="st0" d="M182.2,48.6c0,0.1,0,0.2-0.1,0.2c-0.7,0-1.3,0-1.7,0l-2.3,0l-2.3,0c-0.4,0-0.9,0-1.6,0
				c-0.1,0-0.1-0.1-0.1-0.2c0-0.1,0-0.2,0.1-0.2c0.9,0,1.5-0.1,1.8-0.3c0.3-0.2,0.5-0.6,0.5-1.3l0-0.5l-0.7-12.8l-6.5,15.1
				c0,0.1-0.1,0.1-0.3,0.1c-0.1,0-0.2,0-0.3-0.1l-7.9-15.1l-0.3,11.3c0,1.1,0.2,2,0.7,2.6c0.5,0.6,1.1,1,2,1c0.1,0,0.1,0.1,0.1,0.2
				c0,0.1,0,0.2-0.1,0.2c-0.6,0-1,0-1.3,0l-1.7,0l-2,0c-0.3,0-0.8,0-1.3,0c-0.1,0-0.1-0.1-0.1-0.2c0-0.1,0-0.2,0.1-0.2
				c0.9,0,1.5-0.3,2-1c0.5-0.6,0.8-1.5,0.8-2.6l0.3-13l0,0c-0.4-0.8-0.9-1.3-1.3-1.7c-0.4-0.4-1-0.5-1.6-0.5c-0.1,0-0.1-0.1-0.1-0.2
				s0-0.2,0.1-0.2l1.5,0c0.3,0,0.7,0,1.1,0l1.7,0c0.2,0,0.4,0,0.7,0c0.3,0,0.5,0.1,0.6,0.3c0.1,0.2,0.4,0.6,0.8,1.3l6.8,12.8l6-13.7
				c0.1-0.3,0.3-0.5,0.4-0.6c0.1-0.1,0.3-0.2,0.5-0.2c0.2,0,0.4,0,0.6,0c0.2,0,0.5,0,0.8,0l1.8,0c0.3,0,0.7,0,1.3,0
				c0.1,0,0.1,0.1,0.1,0.2s0,0.2-0.1,0.2c-1,0-1.7,0.2-2.1,0.6c-0.4,0.4-0.6,1-0.6,1.8l0.8,14.2c0,0.6,0.1,1.1,0.2,1.4
				c0.1,0.3,0.3,0.5,0.6,0.6c0.3,0.1,0.8,0.2,1.4,0.2C182.1,48.5,182.2,48.5,182.2,48.6z"/>
			<path class="st0" d="M189.8,47.6c0.1,0.3,0.4,0.5,0.8,0.6c0.4,0.1,1.1,0.2,2,0.2c0.1,0,0.1,0.1,0.1,0.2c0,0.1,0,0.2-0.1,0.2
				c-0.9,0-1.5,0-2,0l-2.7,0l-2.3,0c-0.4,0-1,0-1.7,0c-0.1,0-0.1-0.1-0.1-0.2c0-0.1,0-0.2,0.1-0.2c0.7,0,1.2-0.1,1.5-0.2
				c0.3-0.1,0.5-0.3,0.6-0.6c0.1-0.3,0.2-0.8,0.2-1.4V31.8c0-0.6-0.1-1.1-0.2-1.4c-0.1-0.3-0.3-0.5-0.6-0.6
				c-0.3-0.1-0.8-0.2-1.4-0.2c-0.1,0-0.1-0.1-0.1-0.2s0-0.2,0.1-0.2l1.7,0c1,0,1.7,0.1,2.3,0.1c0.5,0,1.1,0,1.8-0.1
				c0.3,0,0.6,0,1-0.1c0.4,0,0.9,0,1.4,0c2.1,0,3.8,0.4,5,1.3c1.2,0.9,1.8,2.3,1.8,4.1c0,1.3-0.3,2.4-1,3.3c-0.7,0.9-1.5,1.6-2.6,2
				c-1.1,0.5-2.1,0.7-3.2,0.7c-0.6,0-1.1-0.1-1.5-0.2c0,0-0.1-0.1-0.1-0.2c0-0.1,0-0.1,0-0.2s0.1-0.1,0.1-0.1
				c0.3,0.1,0.7,0.1,1.1,0.1c1,0,1.8-0.4,2.4-1.3c0.6-0.9,1-2.2,1-3.8c0-1.6-0.4-2.9-1-3.8c-0.7-0.9-1.7-1.3-3.1-1.3
				c-0.6,0-1,0.1-1.2,0.4c-0.2,0.3-0.3,0.8-0.3,1.6v14.3C189.6,46.8,189.7,47.3,189.8,47.6z"/>
			<path class="st0" d="M207.4,47.7c0.1,0.3,0.3,0.5,0.6,0.6c0.3,0.1,0.8,0.2,1.5,0.2c0.1,0,0.1,0.1,0.1,0.2c0,0.1,0,0.2-0.1,0.2
				c-0.7,0-1.2,0-1.6,0l-2.4,0l-2.3,0c-0.4,0-1,0-1.7,0c0,0-0.1-0.1-0.1-0.2c0-0.1,0-0.2,0.1-0.2c0.7,0,1.2-0.1,1.5-0.2
				c0.3-0.1,0.5-0.3,0.6-0.6s0.2-0.8,0.2-1.4V31.8c0-0.6-0.1-1.1-0.2-1.4s-0.3-0.5-0.6-0.6c-0.3-0.1-0.8-0.2-1.5-0.2
				c0,0-0.1-0.1-0.1-0.2s0-0.2,0.1-0.2l1.7,0c1,0,1.7,0.1,2.3,0.1c0.6,0,1.5,0,2.4-0.1l1.6,0c0.1,0,0.1,0.1,0.1,0.2s0,0.2-0.1,0.2
				c-0.6,0-1.1,0.1-1.4,0.2c-0.3,0.1-0.5,0.3-0.6,0.6s-0.2,0.8-0.2,1.4v14.4C207.3,46.9,207.3,47.4,207.4,47.7z"/>
			<path class="st0" d="M217.2,47.8c-1.5-0.9-2.7-2.1-3.5-3.7c-0.8-1.6-1.2-3.3-1.2-5.1c0-2.2,0.5-4,1.6-5.5
				c1.1-1.5,2.5-2.7,4.2-3.5c1.7-0.8,3.4-1.2,5.2-1.2c2,0,3.7,0.5,5.2,1.4c1.5,0.9,2.7,2.2,3.5,3.7c0.8,1.5,1.2,3.1,1.2,4.9
				c0,1.9-0.5,3.6-1.5,5.2c-1,1.6-2.3,2.8-4,3.8c-1.7,0.9-3.5,1.4-5.5,1.4C220.4,49.2,218.7,48.8,217.2,47.8z M226.5,47.4
				c0.9-0.7,1.7-1.7,2.2-3c0.5-1.3,0.8-2.9,0.8-4.7c0-1.9-0.3-3.6-0.9-5.2c-0.6-1.5-1.4-2.7-2.5-3.6c-1.1-0.9-2.4-1.3-3.9-1.3
				c-1.9,0-3.4,0.7-4.4,2.1s-1.5,3.4-1.5,6c0,2,0.3,3.8,0.9,5.4c0.6,1.6,1.5,2.8,2.5,3.7c1.1,0.9,2.3,1.3,3.6,1.3
				C224.6,48.4,225.6,48.1,226.5,47.4z"/>
			<path class="st0" d="M257.6,29.4c0,0.1,0,0.2-0.1,0.2c-0.8,0-1.5,0.3-2,1c-0.5,0.7-0.7,1.5-0.7,2.6v16c0,0.1,0,0.1-0.1,0.1
				c-0.1,0-0.2,0-0.2,0l-14.7-16.7v12.2c0,1.1,0.2,2,0.7,2.6c0.5,0.6,1.1,1,1.9,1c0,0,0.1,0.1,0.1,0.2c0,0.1,0,0.2-0.1,0.2
				c-0.6,0-1,0-1.3,0l-1.7,0l-1.9,0c-0.4,0-0.9,0-1.5,0c-0.1,0-0.1-0.1-0.1-0.2c0-0.1,0-0.2,0.1-0.2c0.9,0,1.6-0.3,2.2-1
				c0.5-0.6,0.8-1.5,0.8-2.6V31.6c-0.7-0.8-1.3-1.3-1.8-1.6s-1-0.4-1.5-0.4c0,0-0.1-0.1-0.1-0.2s0-0.2,0.1-0.2l1.3,0
				c0.3,0,0.7,0,1.2,0l2.4,0c0.3,0,0.6,0,1.1,0c0.2,0,0.3,0,0.4,0.1c0.1,0.1,0.2,0.3,0.4,0.5c0.4,0.5,0.6,0.8,0.8,1l10.8,12.5V33.3
				c0-1.1-0.2-2-0.7-2.7c-0.5-0.6-1.1-1-1.9-1c0,0-0.1-0.1-0.1-0.2s0-0.2,0.1-0.2l1.3,0c0.7,0,1.2,0.1,1.7,0.1c0.4,0,1,0,1.8-0.1
				l1.4,0C257.6,29.3,257.6,29.3,257.6,29.4z"/>
			<path class="st0" d="M263.9,34.4c0.4,0.6,0.9,1.1,1.4,1.5s1.3,1,2.3,1.6c1,0.7,1.9,1.3,2.5,1.8c0.6,0.5,1.2,1.1,1.6,1.8
				s0.7,1.5,0.7,2.5c0,1.1-0.3,2.1-0.9,2.9c-0.6,0.8-1.4,1.5-2.4,2c-1,0.5-2.2,0.7-3.5,0.7c-0.9,0-1.9-0.1-2.9-0.4s-1.7-0.5-2.1-0.9
				c-0.1-0.1-0.2-0.2-0.2-0.2c-0.1-0.1-0.1-0.2-0.1-0.4l-0.1-5v0c0-0.1,0.1-0.1,0.2-0.1c0.1,0,0.2,0,0.2,0.1
				c0.6,1.3,1.2,2.3,1.6,3.1s1.1,1.5,1.8,2.1c0.7,0.6,1.5,0.9,2.5,0.9c0.8,0,1.5-0.2,2.1-0.7c0.5-0.4,0.8-1.2,0.8-2.3
				c0-0.9-0.2-1.7-0.6-2.4c-0.4-0.7-0.9-1.3-1.5-1.8c-0.6-0.5-1.4-1.1-2.4-1.7c-1-0.6-1.8-1.2-2.3-1.7c-0.6-0.5-1-1-1.4-1.7
				c-0.4-0.6-0.6-1.4-0.6-2.3c0-1.1,0.3-2,1-2.8c0.6-0.8,1.5-1.3,2.5-1.7c1-0.4,2.1-0.5,3.2-0.5c0.7,0,1.5,0.1,2.2,0.2
				c0.8,0.1,1.4,0.3,1.8,0.5c0.2,0.1,0.3,0.2,0.4,0.3c0.1,0.1,0.1,0.2,0.1,0.4v4.6c0,0.1-0.1,0.1-0.2,0.1s-0.2,0-0.2,0l-0.3-0.6
				c-0.5-1.3-1.1-2.4-1.8-3.4c-0.7-0.9-1.7-1.4-2.9-1.4c-0.8,0-1.5,0.2-2.1,0.7c-0.5,0.5-0.8,1.2-0.8,2.1
				C263.4,33.2,263.5,33.8,263.9,34.4z"/>
		</g>
		<g>
			<path class="st0" d="M105.3,6.7c0,0.1,0,0.2-0.1,0.2c-0.5,0-1.2,0.3-2,1c-0.8,0.7-1.5,1.5-2.1,2.6L98.4,15v5.9
				c0,0.5,0,0.9,0.1,1.2c0.1,0.2,0.3,0.4,0.5,0.5c0.3,0.1,0.7,0.1,1.2,0.1c0.1,0,0.1,0.1,0.1,0.2s0,0.2-0.1,0.2c-0.6,0-1,0-1.4,0
				l-2,0l-2,0c-0.4,0-0.8,0-1.4,0c0,0-0.1-0.1-0.1-0.2s0-0.2,0.1-0.2c0.6,0,1,0,1.2-0.1c0.3-0.1,0.4-0.3,0.5-0.5
				c0.1-0.3,0.1-0.6,0.1-1.2v-5.4l-3.9-6c-0.7-1-1.2-1.7-1.6-2.1c-0.4-0.4-0.8-0.6-1.1-0.6c-0.1,0-0.1-0.1-0.1-0.2
				c0-0.1,0-0.2,0.1-0.2l0.8,0c0.4,0,0.7,0.1,0.8,0.1c0.6,0,1.5,0,2.7-0.1l1.8,0c0,0,0.1,0.1,0.1,0.2c0,0.1,0,0.2-0.1,0.2
				c-0.3,0-0.5,0.1-0.7,0.2C94,7.2,94,7.4,94,7.6c0,0.3,0.1,0.6,0.4,1l3.6,5.7l2.4-4.2c0.5-0.8,0.7-1.5,0.7-2c0-0.4-0.1-0.7-0.4-1
				c-0.3-0.2-0.6-0.3-1.1-0.3c-0.1,0-0.1-0.1-0.1-0.2c0-0.1,0-0.2,0.1-0.2l1.4,0c0.8,0,1.5,0.1,2.2,0.1c0.3,0,0.7,0,1.1-0.1l1,0
				C105.3,6.5,105.3,6.6,105.3,6.7z"/>
			<path class="st0" d="M109.7,22.2c-1.3-0.8-2.3-1.8-3-3.1c-0.7-1.3-1-2.8-1-4.3c0-1.8,0.5-3.4,1.4-4.7c0.9-1.3,2.1-2.3,3.5-2.9
				c1.4-0.7,2.9-1,4.4-1c1.7,0,3.2,0.4,4.4,1.2c1.3,0.8,2.2,1.8,2.9,3.1c0.7,1.3,1,2.7,1,4.1c0,1.6-0.4,3.1-1.3,4.4
				c-0.8,1.3-2,2.4-3.4,3.2c-1.4,0.8-3,1.2-4.6,1.2C112.4,23.4,111,23,109.7,22.2z M117.6,21.9c0.8-0.6,1.4-1.4,1.8-2.5
				c0.4-1.1,0.7-2.4,0.7-4c0-1.6-0.2-3.1-0.7-4.4c-0.5-1.3-1.2-2.3-2.1-3c-0.9-0.7-2-1.1-3.3-1.1c-1.6,0-2.8,0.6-3.7,1.8
				c-0.9,1.2-1.3,2.9-1.3,5.1c0,1.7,0.3,3.2,0.8,4.6c0.5,1.4,1.2,2.4,2.1,3.2c0.9,0.8,1.9,1.1,3.1,1.1
				C115.9,22.7,116.8,22.4,117.6,21.9z"/>
			<path class="st0" d="M139.2,7.6c-0.4-0.5-1-0.8-1.8-0.8c0,0-0.1-0.1-0.1-0.2c0-0.1,0-0.2,0.1-0.2l1.3,0c0.7,0,1.2,0.1,1.6,0.1
				c0.3,0,0.8,0,1.5-0.1l1.2,0c0,0,0.1,0.1,0.1,0.2c0,0.1,0,0.2-0.1,0.2c-0.7,0-1.2,0.3-1.6,0.8c-0.4,0.5-0.6,1.3-0.6,2.3v7.4
				c0,1.2-0.3,2.3-0.8,3.3c-0.5,0.9-1.3,1.7-2.3,2.2c-1,0.5-2.2,0.8-3.5,0.8c-1.3,0-2.5-0.2-3.5-0.7c-1-0.5-1.8-1.2-2.4-2.2
				c-0.6-0.9-0.9-2.1-0.9-3.3V8.6c0-0.5,0-0.9-0.1-1.2c-0.1-0.2-0.3-0.4-0.5-0.5c-0.3-0.1-0.7-0.1-1.2-0.1c-0.1,0-0.1-0.1-0.1-0.2
				c0-0.1,0-0.2,0.1-0.2l1.4,0c0.8,0,1.5,0.1,1.9,0.1c0.5,0,1.2,0,2-0.1l1.4,0c0.1,0,0.1,0.1,0.1,0.2c0,0.1,0,0.2-0.1,0.2
				c-0.5,0-1,0.1-1.2,0.2c-0.3,0.1-0.4,0.3-0.5,0.5c-0.1,0.3-0.1,0.6-0.1,1.2v7.6c0,2.1,0.4,3.7,1.2,4.7c0.8,1,2,1.5,3.5,1.5
				c1.5,0,2.6-0.4,3.4-1.3c0.8-0.9,1.2-2.2,1.2-3.8V9.9C139.8,8.9,139.6,8.2,139.2,7.6z"/>
			<path class="st0" d="M162.6,6.7c0,0.1,0,0.2-0.1,0.2c-0.7,0-1.3,0.3-1.7,0.8c-0.4,0.6-0.6,1.3-0.6,2.2v13.6c0,0.1,0,0.1-0.1,0.1
				s-0.1,0-0.2,0L147.5,9.4v10.3c0,0.9,0.2,1.7,0.6,2.2c0.4,0.5,0.9,0.8,1.6,0.8c0,0,0.1,0.1,0.1,0.2s0,0.2-0.1,0.2
				c-0.5,0-0.9,0-1.1,0l-1.4,0l-1.6,0c-0.3,0-0.7,0-1.3,0c-0.1,0-0.1-0.1-0.1-0.2s0-0.2,0.1-0.2c0.8,0,1.4-0.3,1.8-0.8
				c0.5-0.5,0.7-1.3,0.7-2.2V8.5c-0.6-0.6-1.1-1.1-1.5-1.3s-0.8-0.4-1.3-0.4c0,0-0.1-0.1-0.1-0.2c0-0.1,0-0.2,0.1-0.2l1.1,0
				c0.2,0,0.6,0,1,0l2,0c0.2,0,0.5,0,0.9,0c0.1,0,0.2,0,0.3,0.1c0.1,0.1,0.2,0.2,0.4,0.5c0.3,0.4,0.5,0.7,0.6,0.8l9.2,10.6V9.9
				c0-1-0.2-1.7-0.6-2.3c-0.4-0.5-0.9-0.8-1.6-0.8c0,0-0.1-0.1-0.1-0.2c0-0.1,0-0.2,0.1-0.2l1.1,0c0.6,0,1,0.1,1.4,0.1
				c0.4,0,0.8,0,1.5-0.1l1.2,0C162.5,6.5,162.6,6.6,162.6,6.7z"/>
			<path class="st0" d="M168.6,22.3c-1.5-0.7-2.6-1.8-3.3-3s-1.1-2.7-1.1-4.3c0-1.7,0.4-3.2,1.3-4.5c0.9-1.3,2.1-2.4,3.6-3.1
				c1.5-0.7,3.2-1.1,5.1-1.1c0.8,0,1.7,0.1,2.5,0.2c0.8,0.1,1.5,0.3,2,0.5C178.9,7,179,7,179,7.1c0,0.1,0.1,0.2,0.1,0.4l0.3,3.7
				c0,0.1,0,0.1-0.1,0.1c-0.1,0-0.2,0-0.2-0.1c-0.6-1.4-1.5-2.4-2.6-3.2c-1.1-0.8-2.3-1.1-3.7-1.1c-1.8,0-3.2,0.6-4.1,1.9
				c-0.9,1.3-1.4,3-1.4,5.1c0,1.8,0.3,3.3,0.9,4.7c0.6,1.4,1.4,2.4,2.5,3.2c1.1,0.8,2.3,1.1,3.6,1.1c0.7,0,1.3-0.1,1.7-0.2
				c0.4-0.2,0.7-0.5,0.8-0.9c0.2-0.5,0.3-1.1,0.3-2c0-0.9-0.1-1.6-0.2-1.9c-0.1-0.4-0.3-0.6-0.7-0.7c-0.3-0.1-0.9-0.2-1.8-0.2
				c-0.1,0-0.2-0.1-0.2-0.2c0-0.1,0-0.1,0-0.1c0,0,0.1-0.1,0.1-0.1c1.5,0.1,2.7,0.1,3.6,0.1c0.9,0,1.8,0,2.8-0.1c0,0,0.1,0,0.1,0.1
				c0,0,0,0.1,0,0.1c0,0.1,0,0.2-0.1,0.2c-0.3,0-0.5,0-0.7,0.2c-0.1,0.1-0.2,0.4-0.2,0.8c0,0.4-0.1,1.1-0.1,2.1c0,0.8,0,1.4,0.1,1.7
				s0.1,0.5,0.1,0.6c0,0.1,0,0.2-0.1,0.2c0,0-0.1,0.1-0.3,0.1c-2.3,0.5-4.3,0.7-6.2,0.7C171.7,23.4,170,23,168.6,22.3z"/>
		</g>
		<g>
			<path class="st0" d="M94,70.7c-1.3-0.8-2.3-1.8-3-3.1c-0.7-1.3-1.1-2.8-1.1-4.3c0-1.8,0.5-3.4,1.4-4.7s2.1-2.3,3.6-2.9
				c1.4-0.7,2.9-1,4.4-1c1.7,0,3.2,0.4,4.4,1.2c1.3,0.8,2.3,1.8,2.9,3.1c0.7,1.3,1,2.7,1,4.1c0,1.6-0.4,3.1-1.3,4.4
				c-0.9,1.3-2,2.4-3.4,3.2c-1.4,0.8-3,1.2-4.6,1.2C96.8,71.9,95.3,71.5,94,70.7z M102.4,70.4c0.9-0.6,1.6-1.4,2.1-2.6
				c0.5-1.1,0.8-2.5,0.8-4c0-1.6-0.3-3.1-0.9-4.4c-0.6-1.3-1.4-2.3-2.5-3c-1.1-0.7-2.3-1.1-3.7-1.1c-1.8,0-3.3,0.6-4.3,1.9
				c-1,1.3-1.5,3-1.5,5.2c0,1.7,0.3,3.2,0.9,4.6c0.6,1.4,1.4,2.4,2.5,3.2c1.1,0.8,2.3,1.2,3.6,1.2C100.5,71.3,101.5,71,102.4,70.4z"
				/>
			<path class="st0" d="M121.4,58.5c0,0.1,0,0.1-0.1,0.1s-0.2,0-0.2-0.1c-0.1-1-0.5-1.7-1-2.2c-0.6-0.5-1.3-0.8-2.2-0.8h-1.4
				c-0.8,0-1.3,0.1-1.6,0.3c-0.3,0.2-0.4,0.6-0.4,1.2v5.8h2.4c1,0,1.7-0.2,2.1-0.5c0.5-0.3,0.7-0.8,0.7-1.4c0,0,0.1-0.1,0.2-0.1
				s0.2,0,0.2,0.1l0,2.2c0,0.5,0,0.9,0,1.2l0,1.3c0,0-0.1,0.1-0.2,0.1s-0.2,0-0.2-0.1c0-0.8-0.2-1.3-0.7-1.7
				c-0.5-0.4-1.2-0.5-2.2-0.5h-2.4v5.8c0,0.6,0.1,1,0.2,1.2c0.2,0.3,0.4,0.4,0.9,0.5s1.1,0.2,2,0.2c0,0,0.1,0.1,0.1,0.2
				s0,0.2-0.1,0.2c-0.7,0-1.3,0-1.7,0l-2.5,0l-1.9,0c-0.3,0-0.8,0-1.4,0c0,0-0.1-0.1-0.1-0.2s0-0.2,0.1-0.2c0.7,0,1.1,0,1.5-0.1
				c0.3-0.1,0.5-0.3,0.6-0.5s0.2-0.7,0.2-1.2V57.1c0-0.5-0.1-0.9-0.2-1.2c-0.1-0.2-0.3-0.4-0.6-0.5c-0.3-0.1-0.7-0.1-1.4-0.1
				c-0.1,0-0.1-0.1-0.1-0.2s0-0.2,0.1-0.2h10.9c0.2,0,0.3,0.1,0.3,0.2L121.4,58.5z"/>
			<path class="st0" d="M131.7,56.4c-0.6,0.6-1.1,1.6-1.4,2.9c0,0-0.1,0.1-0.2,0.1c-0.1,0-0.1,0-0.1-0.1c0.1-0.5,0.2-1.3,0.2-2.4
				c0.1-1.1,0.1-2,0.1-2.5c0-0.1,0.1-0.1,0.2-0.1s0.2,0,0.2,0.1c0,0.4,0.5,0.6,1.5,0.6c1.5,0.1,3.3,0.1,5.3,0.1c1,0,2.2,0,3.3-0.1
				l1.8,0c0.7,0,1.1,0,1.4-0.1c0.3-0.1,0.5-0.3,0.6-0.5c0-0.1,0.1-0.1,0.2-0.1c0.1,0,0.1,0,0.1,0.1c-0.1,0.5-0.1,1.3-0.2,2.4
				c-0.1,1.1-0.1,2-0.1,2.7c0,0,0,0.1-0.1,0.1c-0.1,0-0.1,0-0.1-0.1c-0.1-1.4-0.5-2.4-1.1-3s-1.5-0.9-2.6-0.9c-0.7,0-1.1,0-1.4,0.1
				s-0.5,0.2-0.6,0.5c-0.1,0.2-0.2,0.6-0.2,1.1v12.3c0,0.6,0.1,0.9,0.2,1.2c0.1,0.2,0.3,0.4,0.7,0.5s0.9,0.1,1.6,0.1
				c0,0,0.1,0.1,0.1,0.2s0,0.2-0.1,0.2c-0.6,0-1.1,0-1.5,0l-2.1,0l-2,0c-0.4,0-0.9,0-1.5,0c-0.1,0-0.1-0.1-0.1-0.2s0-0.2,0.1-0.2
				c0.7,0,1.3,0,1.6-0.1c0.3-0.1,0.6-0.3,0.7-0.5s0.2-0.7,0.2-1.2V57.1c0-0.5-0.1-0.9-0.2-1.1s-0.3-0.4-0.6-0.4
				c-0.3-0.1-0.8-0.1-1.4-0.1C133.1,55.5,132.3,55.8,131.7,56.4z"/>
			<path class="st0" d="M165.3,71.4c0,0.1,0,0.2-0.1,0.2c-0.6,0-1,0-1.4,0l-1.9,0l-2.1,0c-0.3,0-0.7,0-1.2,0c-0.1,0-0.1-0.1-0.1-0.2
				s0-0.2,0.1-0.2c0.7,0,1.2,0,1.5-0.1s0.5-0.3,0.6-0.5s0.2-0.7,0.2-1.2v-6.2h-9.7v6.2c0,0.5,0.1,0.9,0.2,1.2s0.3,0.4,0.6,0.5
				c0.3,0.1,0.8,0.1,1.5,0.1c0,0,0.1,0.1,0.1,0.2s0,0.2-0.1,0.2c-0.6,0-1,0-1.4,0l-2,0l-1.9,0c-0.3,0-0.8,0-1.4,0
				c0,0-0.1-0.1-0.1-0.2s0-0.2,0.1-0.2c0.7,0,1.1,0,1.5-0.1c0.3-0.1,0.5-0.3,0.6-0.5s0.2-0.7,0.2-1.2V57.1c0-0.5-0.1-0.9-0.2-1.2
				c-0.1-0.2-0.3-0.4-0.6-0.5c-0.3-0.1-0.8-0.1-1.4-0.1c-0.1,0-0.1-0.1-0.1-0.2s0-0.2,0.1-0.2l1.4,0c0.7,0,1.4,0.1,1.9,0.1
				c0.6,0,1.3,0,2.1-0.1l1.3,0c0,0,0.1,0.1,0.1,0.2s0,0.2-0.1,0.2c-0.7,0-1.1,0.1-1.5,0.2s-0.5,0.3-0.7,0.5
				c-0.1,0.3-0.2,0.7-0.2,1.2v5.5h9.7v-5.5c0-0.5-0.1-0.9-0.2-1.2c-0.1-0.3-0.3-0.4-0.6-0.5c-0.3-0.1-0.8-0.2-1.5-0.2
				c-0.1,0-0.1-0.1-0.1-0.2s0-0.2,0.1-0.2l1.2,0c0.8,0,1.5,0.1,2.1,0.1c0.5,0,1.1,0,1.9-0.1l1.4,0c0.1,0,0.1,0.1,0.1,0.2
				s0,0.2-0.1,0.2c-0.7,0-1.1,0-1.4,0.1c-0.3,0.1-0.5,0.3-0.6,0.5c-0.1,0.2-0.2,0.6-0.2,1.2v12.3c0,0.5,0.1,0.9,0.2,1.2
				s0.3,0.4,0.6,0.5c0.3,0.1,0.8,0.1,1.4,0.1C165.2,71.2,165.3,71.3,165.3,71.4z"/>
			<path class="st0" d="M179.1,67.5c0.1,0,0.1,0,0.1,0c0,0,0.1,0,0.1,0.1c-0.2,1.3-0.3,2.5-0.3,3.6c0,0.1,0,0.2-0.1,0.3
				s-0.2,0.1-0.3,0.1h-11.3c-0.1,0-0.1-0.1-0.1-0.2s0-0.2,0.1-0.2c0.6,0,1.1,0,1.4-0.1s0.5-0.3,0.6-0.5s0.2-0.7,0.2-1.2V57.1
				c0-0.5-0.1-0.9-0.2-1.2c-0.1-0.2-0.3-0.4-0.6-0.5c-0.3-0.1-0.7-0.1-1.4-0.1c-0.1,0-0.1-0.1-0.1-0.2s0-0.2,0.1-0.2h10.9
				c0.2,0,0.3,0.1,0.3,0.2l0.1,3.4c0,0.1,0,0.1-0.1,0.1s-0.2,0-0.2-0.1c-0.1-1-0.5-1.7-1-2.2c-0.6-0.5-1.3-0.8-2.2-0.8h-1.4
				c-0.8,0-1.3,0.1-1.6,0.3c-0.3,0.2-0.4,0.7-0.4,1.3v5.4h2.9c0.9,0,1.6-0.2,2-0.5c0.4-0.3,0.6-0.8,0.6-1.5c0,0,0-0.1,0.1-0.1
				c0.1,0,0.1,0,0.1,0.1l0,2.2l0,1.2c0,0.6,0.1,1,0.1,1.3c0,0-0.1,0.1-0.2,0.1s-0.2,0-0.2-0.1c0-0.8-0.2-1.3-0.7-1.7
				c-0.4-0.4-1.1-0.5-2.1-0.5h-2.8v6.1c0,0.6,0.1,1.1,0.4,1.3c0.2,0.2,0.7,0.3,1.4,0.3h1.7c1,0,1.8-0.3,2.5-0.9
				c0.7-0.6,1.1-1.4,1.4-2.5C179,67.5,179,67.5,179.1,67.5z"/>
			<path class="st0" d="M199.7,67.5c0.1,0,0.1,0,0.1,0c0,0,0.1,0,0.1,0.1c-0.2,1.3-0.3,2.5-0.3,3.6c0,0.1,0,0.2-0.1,0.3
				s-0.2,0.1-0.3,0.1h-11.3c-0.1,0-0.1-0.1-0.1-0.2s0-0.2,0.1-0.2c0.6,0,1.1,0,1.4-0.1s0.5-0.3,0.6-0.5s0.2-0.7,0.2-1.2V57.1
				c0-0.5-0.1-0.9-0.2-1.2c-0.1-0.2-0.3-0.4-0.6-0.5c-0.3-0.1-0.7-0.1-1.4-0.1c-0.1,0-0.1-0.1-0.1-0.2s0-0.2,0.1-0.2h10.9
				c0.2,0,0.3,0.1,0.3,0.2l0.1,3.4c0,0.1,0,0.1-0.1,0.1s-0.2,0-0.2-0.1c-0.1-1-0.5-1.7-1-2.2c-0.6-0.5-1.3-0.8-2.2-0.8h-1.4
				c-0.8,0-1.3,0.1-1.6,0.3c-0.3,0.2-0.4,0.7-0.4,1.3v5.4h2.9c0.9,0,1.6-0.2,2-0.5c0.4-0.3,0.6-0.8,0.6-1.5c0,0,0-0.1,0.1-0.1
				c0.1,0,0.1,0,0.1,0.1l0,2.2l0,1.2c0,0.6,0.1,1,0.1,1.3c0,0-0.1,0.1-0.2,0.1s-0.2,0-0.2-0.1c0-0.8-0.2-1.3-0.7-1.7
				c-0.4-0.4-1.1-0.5-2.1-0.5h-2.8v6.1c0,0.6,0.1,1.1,0.4,1.3c0.2,0.2,0.7,0.3,1.4,0.3h1.7c1,0,1.8-0.3,2.5-0.9
				c0.7-0.6,1.1-1.4,1.4-2.5C199.6,67.5,199.7,67.5,199.7,67.5z"/>
			<path class="st0" d="M220.1,71.4c0,0.1,0,0.2-0.1,0.2c-0.3,0-0.9,0-1.6-0.1c-0.7,0-1.2-0.1-1.6-0.1c-0.4,0-0.9,0-1.5,0.1
				c-0.6,0-1.1,0.1-1.4,0.1c-0.1,0-0.1-0.1-0.1-0.2s0-0.2,0.1-0.2c0.6,0,1-0.1,1.3-0.2c0.3-0.1,0.4-0.3,0.4-0.6s-0.1-0.7-0.4-1.2
				l-3-6.2h-4.9l-2.2,5c-0.2,0.6-0.4,1.1-0.4,1.5c0,1.2,0.9,1.7,2.6,1.7c0.1,0,0.1,0.1,0.1,0.2s0,0.2-0.1,0.2c-0.3,0-0.8,0-1.4-0.1
				c-0.7,0-1.3-0.1-1.8-0.1c-0.5,0-1,0-1.6,0.1c-0.6,0-1,0.1-1.4,0.1c-0.1,0-0.1-0.1-0.1-0.2s0-0.2,0.1-0.2c0.5,0,0.9-0.1,1.3-0.3
				c0.3-0.2,0.7-0.5,1-1c0.3-0.5,0.7-1.2,1.1-2.1l5.7-13.1c0-0.1,0.1-0.1,0.2-0.1c0.1,0,0.2,0,0.2,0.1l6.4,13.2
				c0.6,1.3,1.1,2.2,1.5,2.6s0.9,0.7,1.4,0.7C220,71.2,220.1,71.3,220.1,71.4z M207.6,62.4h4.4l-2.3-4.8L207.6,62.4z"/>
			<path class="st0" d="M238.4,71.4c0,0.1,0,0.2-0.1,0.2h-3.9c-0.4,0-1.2-0.8-2.4-2.3c-1.2-1.5-2.6-3.6-4.2-6.2
				c-0.4,0.1-0.8,0.1-1.2,0.1c-0.3,0-0.8,0-1.3-0.1v6.3c0,0.5,0.1,0.9,0.2,1.2s0.3,0.4,0.6,0.5c0.3,0.1,0.8,0.1,1.4,0.1
				c0.1,0,0.1,0.1,0.1,0.2s0,0.2-0.1,0.2c-0.5,0-1,0-1.3,0l-1.9,0l-1.9,0c-0.3,0-0.8,0-1.4,0c-0.1,0-0.1-0.1-0.1-0.2s0-0.2,0.1-0.2
				c0.6,0,1.1,0,1.4-0.1c0.3-0.1,0.5-0.3,0.6-0.5s0.2-0.7,0.2-1.2V57.1c0-0.5-0.1-0.9-0.2-1.2c-0.1-0.2-0.3-0.4-0.6-0.5
				c-0.3-0.1-0.8-0.1-1.4-0.1c0,0-0.1-0.1-0.1-0.2s0-0.2,0.1-0.2l1.3,0c0.8,0,1.4,0.1,1.9,0.1c0.3,0,0.6,0,0.9,0
				c0.3,0,0.5,0,0.7-0.1c0.6-0.1,1.1-0.1,1.6-0.1c1.5,0,2.7,0.3,3.5,0.9c0.8,0.6,1.2,1.4,1.2,2.5c0,0.8-0.2,1.6-0.7,2.4
				c-0.5,0.7-1.1,1.3-1.9,1.8c1.5,2.3,2.7,4,3.7,5.3c1,1.3,1.9,2.2,2.7,2.7c0.8,0.6,1.5,0.8,2.3,0.8
				C238.4,71.2,238.4,71.3,238.4,71.4z M227,62.5c1.1,0,1.9-0.3,2.4-0.8s0.7-1.4,0.7-2.6c0-1.4-0.3-2.4-0.8-3s-1.3-0.9-2.2-0.9
				c-0.5,0-0.8,0-1.1,0.1c-0.2,0.1-0.4,0.3-0.5,0.5c-0.1,0.3-0.2,0.7-0.2,1.2v5.3C226.1,62.5,226.6,62.5,227,62.5z"/>
			<path class="st0" d="M238.7,56.4c-0.6,0.6-1.1,1.6-1.4,2.9c0,0-0.1,0.1-0.2,0.1c-0.1,0-0.1,0-0.1-0.1c0.1-0.5,0.2-1.3,0.2-2.4
				c0.1-1.1,0.1-2,0.1-2.5c0-0.1,0.1-0.1,0.2-0.1s0.2,0,0.2,0.1c0,0.4,0.5,0.6,1.5,0.6c1.5,0.1,3.3,0.1,5.3,0.1c1,0,2.2,0,3.3-0.1
				l1.8,0c0.7,0,1.1,0,1.4-0.1c0.3-0.1,0.5-0.3,0.6-0.5c0-0.1,0.1-0.1,0.2-0.1c0.1,0,0.1,0,0.1,0.1c-0.1,0.5-0.1,1.3-0.2,2.4
				c-0.1,1.1-0.1,2-0.1,2.7c0,0,0,0.1-0.1,0.1c-0.1,0-0.1,0-0.1-0.1c-0.1-1.4-0.5-2.4-1.1-3s-1.5-0.9-2.6-0.9c-0.7,0-1.1,0-1.4,0.1
				s-0.5,0.2-0.6,0.5c-0.1,0.2-0.2,0.6-0.2,1.1v12.3c0,0.6,0.1,0.9,0.2,1.2c0.1,0.2,0.3,0.4,0.7,0.5s0.9,0.1,1.6,0.1
				c0,0,0.1,0.1,0.1,0.2s0,0.2-0.1,0.2c-0.6,0-1.1,0-1.5,0l-2.1,0l-2,0c-0.4,0-0.9,0-1.5,0c-0.1,0-0.1-0.1-0.1-0.2s0-0.2,0.1-0.2
				c0.7,0,1.3,0,1.6-0.1c0.3-0.1,0.6-0.3,0.7-0.5s0.2-0.7,0.2-1.2V57.1c0-0.5-0.1-0.9-0.2-1.1s-0.3-0.4-0.6-0.4
				c-0.3-0.1-0.8-0.1-1.4-0.1C240.1,55.5,239.3,55.8,238.7,56.4z"/>
			<path class="st0" d="M272.3,71.4c0,0.1,0,0.2-0.1,0.2c-0.6,0-1,0-1.4,0l-1.9,0l-2.1,0c-0.3,0-0.7,0-1.2,0c-0.1,0-0.1-0.1-0.1-0.2
				s0-0.2,0.1-0.2c0.7,0,1.2,0,1.5-0.1s0.5-0.3,0.6-0.5s0.2-0.7,0.2-1.2v-6.2h-9.7v6.2c0,0.5,0.1,0.9,0.2,1.2s0.3,0.4,0.6,0.5
				c0.3,0.1,0.8,0.1,1.5,0.1c0,0,0.1,0.1,0.1,0.2s0,0.2-0.1,0.2c-0.6,0-1,0-1.4,0l-2,0l-1.9,0c-0.3,0-0.8,0-1.4,0
				c0,0-0.1-0.1-0.1-0.2s0-0.2,0.1-0.2c0.7,0,1.1,0,1.5-0.1c0.3-0.1,0.5-0.3,0.6-0.5s0.2-0.7,0.2-1.2V57.1c0-0.5-0.1-0.9-0.2-1.2
				c-0.1-0.2-0.3-0.4-0.6-0.5c-0.3-0.1-0.8-0.1-1.4-0.1c-0.1,0-0.1-0.1-0.1-0.2s0-0.2,0.1-0.2l1.4,0c0.7,0,1.4,0.1,1.9,0.1
				c0.6,0,1.3,0,2.1-0.1l1.3,0c0,0,0.1,0.1,0.1,0.2s0,0.2-0.1,0.2c-0.7,0-1.1,0.1-1.5,0.2s-0.5,0.3-0.7,0.5
				c-0.1,0.3-0.2,0.7-0.2,1.2v5.5h9.7v-5.5c0-0.5-0.1-0.9-0.2-1.2c-0.1-0.3-0.3-0.4-0.6-0.5c-0.3-0.1-0.8-0.2-1.5-0.2
				c-0.1,0-0.1-0.1-0.1-0.2s0-0.2,0.1-0.2l1.2,0c0.8,0,1.5,0.1,2.1,0.1c0.5,0,1.1,0,1.9-0.1l1.4,0c0.1,0,0.1,0.1,0.1,0.2
				s0,0.2-0.1,0.2c-0.7,0-1.1,0-1.4,0.1c-0.3,0.1-0.5,0.3-0.6,0.5c-0.1,0.2-0.2,0.6-0.2,1.2v12.3c0,0.5,0.1,0.9,0.2,1.2
				s0.3,0.4,0.6,0.5c0.3,0.1,0.8,0.1,1.4,0.1C272.2,71.2,272.3,71.3,272.3,71.4z"/>
		</g>
	</g>
	<g>
		<path class="st0" d="M44.9,53.8c-0.1,0-0.2,0-0.2,0c-2.1-0.1-4-0.9-5.4-2.4c-1.4-1.5-2.2-3.5-2.1-5.5c0.1-2.1,0.9-4,2.4-5.4
			c1.5-1.4,3.5-2.2,5.5-2.1c2.1,0.1,4,0.9,5.4,2.4c1.4,1.5,2.2,3.5,2.1,5.5c-0.1,2.1-0.9,4-2.4,5.4C48.8,53.1,46.9,53.8,44.9,53.8z
			 M44.9,39.3c-1.7,0-3.4,0.6-4.6,1.8c-1.3,1.2-2.1,2.9-2.1,4.7c-0.1,1.8,0.6,3.5,1.8,4.9c1.2,1.3,2.9,2.1,4.7,2.1
			c1.8,0.1,3.5-0.6,4.9-1.8l0,0c1.3-1.2,2.1-2.9,2.1-4.7c0.1-1.8-0.6-3.5-1.8-4.9c-1.2-1.3-2.9-2.1-4.7-2.1
			C45.1,39.3,45,39.3,44.9,39.3z"/>
		<path class="st0" d="M46.6,55.8h-4.5c-3.3,0-6.3-2.1-7.3-5.3l-1.4-4.3c-1-3.2,0.1-6.6,2.8-8.6l3.7-2.7c2.7-2,6.4-2,9.1,0l3.7,2.7
			c2.7,2,3.8,5.4,2.8,8.6L54,50.4C52.9,53.6,50,55.8,46.6,55.8z M44.4,34.3c-1.4,0-2.8,0.4-4,1.3l-3.7,2.7c-2.4,1.7-3.4,4.8-2.5,7.6
			l1.4,4.3c0.9,2.8,3.5,4.7,6.5,4.7h4.5c3,0,5.5-1.9,6.5-4.7l1.4-4.3c0.9-2.8-0.1-5.9-2.5-7.6l-3.7-2.7
			C47.2,34.7,45.8,34.3,44.4,34.3z"/>
		<path class="st0" d="M45.8,59.7c-0.6,0-1.2-0.1-1.8-0.2l-7.9-1.9c-2.6-0.6-4.8-2.6-5.6-5.2L28.3,45c-0.8-2.7-0.1-5.6,1.8-7.6
			l5.4-5.5c1.9-2,4.7-2.8,7.3-2.1l7.9,1.9c2.6,0.6,4.8,2.6,5.6,5.2l2.3,7.4c0.8,2.7,0.1,5.6-1.8,7.6l-5.4,5.5
			C49.9,58.8,47.9,59.7,45.8,59.7z M41.1,30.4c-1.8,0-3.6,0.7-4.9,2.1L30.8,38c-1.7,1.8-2.3,4.3-1.6,6.7l2.3,7.4
			c0.7,2.3,2.6,4.1,4.9,4.6l7.9,1.9c2.3,0.6,4.8-0.2,6.5-1.9l5.4-5.5c1.7-1.8,2.3-4.3,1.6-6.7l-2.3-7.4c-0.7-2.3-2.6-4.1-4.9-4.6
			l-7.9-1.9C42.1,30.5,41.6,30.4,41.1,30.4z"/>
		<path class="st0" d="M42.6,63.7c-1.1,0-2.3-0.3-3.3-0.8l-9.8-4.7c-2.1-1-3.7-2.9-4.2-5.2l-2.4-10.5c-0.5-2.3,0-4.7,1.5-6.5
			l6.7-8.5c1.5-1.8,3.7-2.9,6-2.9l10.8,0c0,0,0,0,0,0c2.4,0,4.5,1.1,6,2.9l6.8,8.4c1.5,1.8,2,4.2,1.5,6.5L59.9,53
			c-0.5,2.3-2,4.2-4.2,5.2L46,62.9C44.9,63.4,43.8,63.7,42.6,63.7z M37.1,25.5c-2.1,0-4,0.9-5.3,2.6l-6.7,8.5
			c-1.3,1.6-1.8,3.7-1.3,5.7l2.4,10.5c0.5,2,1.8,3.7,3.7,4.6l9.8,4.7c1.9,0.9,4,0.9,5.9,0l9.7-4.7c1.9-0.9,3.2-2.6,3.7-4.6l2.4-10.5
			c0.5-2,0-4.1-1.3-5.7L53.3,28C52,26.4,50,25.5,48,25.5c0,0,0,0,0,0L37.1,25.5z"/>
		<path class="st0" d="M34.8,66.7c-2,0-3.9-0.7-5.3-2.1l-9.9-9.4c-1.5-1.4-2.4-3.3-2.4-5.4l-0.4-13.6c-0.1-2.1,0.7-4,2.1-5.5
			l9.4-9.9c1.4-1.5,3.3-2.4,5.4-2.4l13.6-0.4c2.1,0,4,0.7,5.5,2.1h0l9.9,9.4c1.5,1.4,2.4,3.3,2.4,5.4l0.4,13.6
			c0.1,2.1-0.7,4-2.1,5.5L54,64c-1.4,1.5-3.3,2.4-5.4,2.4L35,66.7C35,66.7,34.9,66.7,34.8,66.7z M47.5,19c-0.1,0-0.1,0-0.2,0
			l-13.6,0.4c-1.8,0-3.5,0.8-4.7,2.1l-9.4,9.9c-1.2,1.3-1.9,3-1.9,4.9l0.4,13.6c0,1.8,0.8,3.5,2.1,4.7l9.9,9.4
			c1.3,1.2,3,1.9,4.9,1.9l13.6-0.4c1.8,0,3.5-0.8,4.7-2.1l9.4-9.9c1.2-1.3,1.9-3,1.9-4.9L64.2,35c0-1.8-0.8-3.5-2.1-4.7l-9.9-9.4
			C50.9,19.7,49.3,19,47.5,19z"/>
		<path class="st0" d="M43.9,71.3c-0.5,0-1.1-0.1-1.6-0.2L27.4,68c-1.8-0.4-3.4-1.4-4.5-2.8l-9.4-12c-1.1-1.4-1.7-3.2-1.6-5L12.5,33
			c0.1-1.8,0.8-3.5,2-4.9l10.2-11.3c1.2-1.3,2.9-2.2,4.7-2.5l15.1-2.1c1.8-0.3,3.6,0.1,5.2,1.1l12.9,8.1c1.5,1,2.7,2.4,3.2,4.2
			L70.4,40c0.6,1.7,0.5,3.6-0.2,5.3l-5.7,14.1c-0.7,1.7-1.9,3.1-3.5,3.9l-13.4,7.1C46.4,71,45.1,71.3,43.9,71.3z M45.4,13
			c-0.3,0-0.6,0-0.9,0.1l-15.1,2.1c-1.6,0.2-3,1-4.1,2.2L15.1,28.7c-1.1,1.2-1.7,2.7-1.7,4.3l-0.5,15.2c-0.1,1.6,0.5,3.2,1.4,4.4
			l9.4,12c1,1.3,2.4,2.1,3.9,2.5l14.9,3.2c1.6,0.3,3.2,0.1,4.6-0.6l13.4-7.1c1.4-0.7,2.5-2,3.1-3.4l5.7-14.1
			c0.6-1.5,0.7-3.1,0.2-4.6l-4.7-14.5c-0.5-1.5-1.5-2.8-2.9-3.7l-12.9-8.1C48,13.4,46.7,13,45.4,13z"/>
		<path class="st0" d="M40.4,75c-0.8,0-1.6-0.1-2.4-0.4l-15.3-5c-1.6-0.5-2.9-1.5-3.9-2.8L9.4,53.8c-1-1.3-1.5-2.9-1.5-4.5l0-16.1
			c0-1.6,0.5-3.2,1.5-4.5l9.5-13c1-1.3,2.3-2.3,3.9-2.8l15.3-5c1.6-0.5,3.2-0.5,4.8,0h0l15.3,5c1.6,0.5,2.9,1.5,3.9,2.8l9.5,13.1
			c1,1.3,1.5,2.9,1.5,4.5l0,16.1c0,1.6-0.5,3.2-1.5,4.5l-9.5,13c-1,1.3-2.3,2.3-3.9,2.8l-15.3,5C42,74.9,41.2,75,40.4,75z M40.5,8.3
			c-0.7,0-1.4,0.1-2.1,0.3l-15.3,5c-1.4,0.4-2.5,1.3-3.4,2.5l-9.5,13c-0.8,1.2-1.3,2.5-1.3,4l0,16.1c0,1.4,0.4,2.8,1.3,4l9.5,13.1
			c0.8,1.2,2,2,3.4,2.5l15.3,5c1.4,0.4,2.8,0.4,4.2,0l15.3-5c1.4-0.4,2.5-1.3,3.4-2.5l9.5-13c0.8-1.2,1.3-2.5,1.3-4l0-16.1
			c0-1.4-0.4-2.8-1.3-4l-9.5-13.1c-0.8-1.2-2-2-3.4-2.5l-15.3-5C41.9,8.4,41.2,8.3,40.5,8.3z"/>
		<path class="st0" d="M48.1,77.5H30.5c-1.5,0-3-0.4-4.3-1.3l-14.7-9.5c-1.3-0.8-2.3-2-3-3.4L1.2,47.4c-0.6-1.4-0.9-3-0.6-4.5
			l2.5-17.3C3.3,24.1,4,22.7,5,21.5L16.4,8.3c1-1.2,2.3-2,3.8-2.4L37,0.9c1.5-0.4,3-0.4,4.5,0l16.8,4.9c1.5,0.4,2.8,1.3,3.8,2.4
			l11.5,13.2c1,1.2,1.7,2.6,1.9,4.1L78,43c0.2,1.5,0,3.1-0.6,4.5l-7.3,15.9c-0.6,1.4-1.7,2.6-3,3.4l-14.7,9.5
			C51.1,77.1,49.6,77.5,48.1,77.5z M39.3,1.5c-0.7,0-1.3,0.1-2,0.3L20.5,6.8c-1.3,0.4-2.5,1.1-3.4,2.2L5.7,22.1
			c-0.9,1-1.5,2.3-1.7,3.6L1.5,43.1c-0.2,1.3,0,2.7,0.6,3.9L9.4,63c0.6,1.2,1.5,2.3,2.6,3l14.7,9.5c1.1,0.7,2.5,1.1,3.8,1.1h17.5
			c1.4,0,2.7-0.4,3.8-1.1L66.6,66c1.1-0.7,2-1.8,2.6-3L76.5,47c0.6-1.2,0.8-2.6,0.6-3.9l-2.5-17.3c-0.2-1.3-0.8-2.6-1.7-3.6
			L61.4,8.9c-0.9-1-2-1.8-3.4-2.2L41.3,1.8C40.6,1.6,40,1.5,39.3,1.5z"/>
	</g>
</g>
</svg>
